<svg xmlns="http://www.w3.org/2000/svg" viewBox="0 0 24 24" fill="none">
  <rect width="24" height="24" rx="5" fill="#0b1229"/>
  <!-- Shield with opacity -->
  <path d="M20 13c0 5-3.5 7.5-7.66 8.95a1 1 0 0 1-.67-.01C7.5 20.5 4 18 4 13V6a1 1 0 0 1 1-1c2 0 4.5-1.2 6.24-2.72a1.17 1.17 0 0 1 1.52 0C14.51 3.81 17 5 19 5a1 1 0 0 1 1 1z" stroke="#22d3ee" stroke-width="1.5" stroke-linecap="round" stroke-linejoin="round" opacity="0.2"/>
  <!-- Shield outline -->
  <path d="M20 13c0 5-3.5 7.5-7.66 8.95a1 1 0 0 1-.67-.01C7.5 20.5 4 18 4 13V6a1 1 0 0 1 1-1c2 0 4.5-1.2 6.24-2.72a1.17 1.17 0 0 1 1.52 0C14.51 3.81 17 5 19 5a1 1 0 0 1 1 1z" stroke="#22d3ee" stroke-width="1" stroke-linecap="round" stroke-linejoin="round"/>
  <!-- Ship centered -->
  <g transform="translate(6, 6) scale(0.5)" style="filter: drop-shadow(0px 0px 2px rgba(34,211,238,0.8));">
    <path d="M2 21c.6.5 1.2 1 2.5 1 2.5 0 3.2-1.5 5.5-1.5 2.3 0 3 1.5 5.5 1.5 2.5 0 3.2-1.5 5.5-1.5 1.3 0 1.9.5 2.5 1" stroke="#22d3ee" stroke-width="2" stroke-linecap="round" stroke-linejoin="round"/>
    <path d="M19.38 20A11.6 11.6 0 0 0 21 14l-9-4-9 4c0 2.9.94 5.34 2.81 7.76" stroke="#22d3ee" stroke-width="2" stroke-linecap="round" stroke-linejoin="round"/>
    <path d="M19 13V7a2 2 0 0 0-2-2H7a2 2 0 0 0-2 2v6" stroke="#22d3ee" stroke-width="2" stroke-linecap="round" stroke-linejoin="round"/>
    <path d="M12 10v4" stroke="#22d3ee" stroke-width="2" stroke-linecap="round" stroke-linejoin="round"/>
    <path d="M12 2v3" stroke="#22d3ee" stroke-width="2" stroke-linecap="round" stroke-linejoin="round"/>
  </g>
</svg>
